<svg width="168" height="24" viewBox="0 0 168 24" fill="none" xmlns="http://www.w3.org/2000/svg">
<path d="M15.2525 12.0056H13.2901C13.2901 15.1408 13.2901 19 13.2901 19H10.3823C10.3823 19 10.3823 15.1782 10.3823 12.0056H9V9.53354H10.3823V7.93458C10.3823 6.78942 10.9264 5 13.3168 5L15.4716 5.00826V7.40791C15.4716 7.40791 14.1622 7.40791 13.9077 7.40791C13.6531 7.40791 13.2911 7.53521 13.2911 8.08131V9.53403H15.5066L15.2525 12.0056Z" fill="#97A0AB"/>
<path d="M15.2525 12.0056H13.2901C13.2901 15.1408 13.2901 19 13.2901 19H10.3823C10.3823 19 10.3823 15.1782 10.3823 12.0056H9V9.53354H10.3823V7.93458C10.3823 6.78942 10.9264 5 13.3168 5L15.4716 5.00826V7.40791C15.4716 7.40791 14.1622 7.40791 13.9077 7.40791C13.6531 7.40791 13.2911 7.53521 13.2911 8.08131V9.53403H15.5066L15.2525 12.0056Z" fill="#97A0AB"/>
<path fill-rule="evenodd" clip-rule="evenodd" d="M54.6504 6C53.6527 6 53 6.65489 53 7.51533C53 8.35749 53.6338 9.0313 54.6121 9.0313H54.631C55.6483 9.0313 56.2808 8.35749 56.2808 7.51533C56.2614 6.65489 55.6483 6 54.6504 6ZM66.6042 13.9697V19H63.6878V14.3068C63.6878 13.1284 63.2667 12.3236 62.2107 12.3236C61.4049 12.3236 60.9262 12.8654 60.7147 13.39C60.638 13.5775 60.6182 13.8378 60.6182 14.1008V18.9998H57.7015C57.7015 18.9998 57.7406 11.051 57.7015 10.2282H60.6184V11.4712C60.6156 11.4758 60.6124 11.4803 60.6091 11.4848L60.6091 11.4848C60.6054 11.4899 60.6018 11.495 60.599 11.4999H60.6184V11.4712C61.006 10.8748 61.6972 10.0222 63.2469 10.0222C65.1657 10.0222 66.6042 11.2759 66.6042 13.9697ZM56.0889 19H53.1733V10.2282H56.0889V19Z" fill="#97A0AB"/>
<path fill-rule="evenodd" clip-rule="evenodd" d="M54.6504 6C53.6527 6 53 6.65489 53 7.51533C53 8.35749 53.6338 9.0313 54.6121 9.0313H54.631C55.6483 9.0313 56.2808 8.35749 56.2808 7.51533C56.2614 6.65489 55.6483 6 54.6504 6ZM66.6042 13.9697V19H63.6878V14.3068C63.6878 13.1284 63.2667 12.3236 62.2107 12.3236C61.4049 12.3236 60.9262 12.8654 60.7147 13.39C60.638 13.5775 60.6182 13.8378 60.6182 14.1008V18.9998H57.7015C57.7015 18.9998 57.7406 11.051 57.7015 10.2282H60.6184V11.4712C60.6156 11.4758 60.6124 11.4803 60.6091 11.4848L60.6091 11.4848C60.6054 11.4899 60.6018 11.495 60.599 11.4999H60.6184V11.4712C61.006 10.8748 61.6972 10.0222 63.2469 10.0222C65.1657 10.0222 66.6042 11.2759 66.6042 13.9697ZM56.0889 19H53.1733V10.2282H56.0889V19Z" fill="#97A0AB"/>
<path fill-rule="evenodd" clip-rule="evenodd" d="M114.508 6.49288L114.47 6.46808C113.701 5.73634 112.796 5.38907 111.754 5.43868L111.717 5.36426L111.742 5.35186C112.684 5.14102 113.243 4.91778 113.416 4.66973C113.466 4.47129 113.404 4.35967 113.193 4.33486C112.722 4.39688 112.275 4.4961 111.891 4.65733C112.387 4.33486 112.573 4.11162 112.461 4C111.978 4.0124 111.444 4.26045 110.898 4.75655C111.097 4.40928 111.184 4.21084 111.134 4.18604C110.861 4.35967 110.638 4.55811 110.44 4.76895C110.018 5.24024 109.683 5.67432 109.423 6.0712L109.41 6.09601C108.753 7.17501 108.282 8.25402 108.009 9.35784L107.91 9.44465L107.885 9.45706C107.488 8.96096 107.004 8.53928 106.434 8.20441C105.764 7.75793 104.97 7.34865 104.052 6.93937C103.06 6.41847 102.043 5.99679 101.026 5.66192C101.014 6.81535 101.584 7.72072 102.688 8.39045V8.40285C102.304 8.40285 101.919 8.46486 101.547 8.57649C101.622 9.64309 102.378 10.3748 103.804 10.7717L103.792 10.7965C103.234 10.7593 102.775 10.9577 102.415 11.367C102.887 12.2848 103.718 12.7189 104.921 12.6941C104.685 12.8181 104.499 12.9421 104.375 13.091C104.152 13.3266 104.077 13.5995 104.152 13.9095C104.412 14.3808 104.871 14.5917 105.553 14.5544L105.59 14.6041L105.578 14.6289C104.4 15.8443 102.973 16.39 101.311 16.2784L101.287 16.2908C100.27 16.2784 99.1782 15.7947 98 14.8273C99.1782 16.5264 100.753 17.7543 102.701 18.5356C104.921 19.2674 107.153 19.3294 109.373 18.6968H109.41C111.568 18.0767 113.391 16.7869 114.904 14.8521C115.599 13.8475 116.033 12.8801 116.207 11.9499C117.335 11.9871 118.142 11.6647 118.65 10.9701L118.638 10.9453C118.253 11.0818 117.521 11.0446 116.442 10.8213V10.6973C117.633 10.5609 118.34 10.1764 118.563 9.54387C117.732 9.86634 116.914 9.87874 116.108 9.56868C115.959 8.45246 115.425 7.42306 114.508 6.49288Z" fill="#97A0AB"/>
<path fill-rule="evenodd" clip-rule="evenodd" d="M114.508 6.49288L114.47 6.46808C113.701 5.73634 112.796 5.38907 111.754 5.43868L111.717 5.36426L111.742 5.35186C112.684 5.14102 113.243 4.91778 113.416 4.66973C113.466 4.47129 113.404 4.35967 113.193 4.33486C112.722 4.39688 112.275 4.4961 111.891 4.65733C112.387 4.33486 112.573 4.11162 112.461 4C111.978 4.0124 111.444 4.26045 110.898 4.75655C111.097 4.40928 111.184 4.21084 111.134 4.18604C110.861 4.35967 110.638 4.55811 110.44 4.76895C110.018 5.24024 109.683 5.67432 109.423 6.0712L109.41 6.09601C108.753 7.17501 108.282 8.25402 108.009 9.35784L107.91 9.44465L107.885 9.45706C107.488 8.96096 107.004 8.53928 106.434 8.20441C105.764 7.75793 104.97 7.34865 104.052 6.93937C103.06 6.41847 102.043 5.99679 101.026 5.66192C101.014 6.81535 101.584 7.72072 102.688 8.39045V8.40285C102.304 8.40285 101.919 8.46486 101.547 8.57649C101.622 9.64309 102.378 10.3748 103.804 10.7717L103.792 10.7965C103.234 10.7593 102.775 10.9577 102.415 11.367C102.887 12.2848 103.718 12.7189 104.921 12.6941C104.685 12.8181 104.499 12.9421 104.375 13.091C104.152 13.3266 104.077 13.5995 104.152 13.9095C104.412 14.3808 104.871 14.5917 105.553 14.5544L105.59 14.6041L105.578 14.6289C104.4 15.8443 102.973 16.39 101.311 16.2784L101.287 16.2908C100.27 16.2784 99.1782 15.7947 98 14.8273C99.1782 16.5264 100.753 17.7543 102.701 18.5356C104.921 19.2674 107.153 19.3294 109.373 18.6968H109.41C111.568 18.0767 113.391 16.7869 114.904 14.8521C115.599 13.8475 116.033 12.8801 116.207 11.9499C117.335 11.9871 118.142 11.6647 118.65 10.9701L118.638 10.9453C118.253 11.0818 117.521 11.0446 116.442 10.8213V10.6973C117.633 10.5609 118.34 10.1764 118.563 9.54387C117.732 9.86634 116.914 9.87874 116.108 9.56868C115.959 8.45246 115.425 7.42306 114.508 6.49288Z" fill="#97A0AB"/>
<path d="M159.951 8.59332C158.107 8.68965 156.503 9.2487 155.201 10.5117C153.886 11.7877 153.285 13.3513 153.449 15.2895C152.729 15.2003 152.072 15.102 151.412 15.0464C151.184 15.0272 150.913 15.0545 150.72 15.1635C150.079 15.5252 149.464 15.9337 148.736 16.389C148.87 15.7845 148.956 15.2551 149.109 14.7459C149.222 14.3716 149.17 14.1633 148.825 13.9196C146.611 12.3567 145.678 10.0177 146.376 7.60969C147.023 5.382 148.609 4.03098 150.765 3.32671C153.707 2.36559 157.014 3.346 158.803 5.68214C159.45 6.52602 159.846 7.47315 159.951 8.59332ZM151.464 7.84299C151.481 7.40256 151.099 7.00577 150.646 6.9925C150.181 6.97887 149.8 7.33354 149.786 7.79088C149.772 8.25438 150.127 8.62583 150.594 8.63769C151.058 8.64947 151.446 8.29431 151.464 7.84299ZM155.892 6.99222C155.437 7.00061 155.052 7.38812 155.06 7.83028C155.069 8.28862 155.446 8.64717 155.914 8.64157C156.383 8.63592 156.738 8.27354 156.734 7.80556C156.73 7.34613 156.355 6.98375 155.892 6.99222Z" fill="#97A0AB"/>
<path d="M164.094 20.0897C163.51 19.8297 162.974 19.4396 162.404 19.3801C161.836 19.3207 161.239 19.6485 160.644 19.7092C158.834 19.8945 157.212 19.3899 155.874 18.1531C153.331 15.8005 153.694 12.1932 156.637 10.2653C159.253 8.55182 163.088 9.12306 164.932 11.5006C166.541 13.5752 166.352 16.3292 164.388 18.072C163.819 18.5764 163.615 18.9915 163.98 19.6564C164.047 19.7792 164.055 19.9347 164.094 20.0897ZM157.447 13.6542C157.819 13.6546 158.125 13.3637 158.139 12.9965C158.154 12.6078 157.841 12.2817 157.452 12.2801C157.066 12.2784 156.743 12.609 156.757 12.9919C156.769 13.3578 157.078 13.6538 157.447 13.6542ZM161.732 12.2817C161.371 12.2792 161.065 12.5744 161.05 12.9389C161.034 13.3286 161.337 13.6486 161.723 13.6496C162.096 13.6508 162.391 13.3687 162.404 12.9975C162.419 12.6069 162.116 12.2843 161.732 12.2817Z" fill="#97A0AB"/>
</svg>
