<svg width="66" height="80" viewBox="0 0 66 80" fill="none" xmlns="http://www.w3.org/2000/svg">
<path fill-rule="evenodd" clip-rule="evenodd" d="M57.951 15.9684H7.95105V12.5151H57.951V15.9684Z" fill="#231F20"/>
<path fill-rule="evenodd" clip-rule="evenodd" d="M57.1482 54.4086H8.75397V50.9553H57.1482V54.4086Z" fill="#231F20"/>
<path fill-rule="evenodd" clip-rule="evenodd" d="M64.1727 35.1886H32.9496V31.7354H64.1727V35.1886Z" fill="#231F20"/>
<path fill-rule="evenodd" clip-rule="evenodd" d="M30.8087 52.682V14.2417H34.2619V52.682H30.8087Z" fill="#231F20"/>
<path fill-rule="evenodd" clip-rule="evenodd" d="M32.9496 3.45324C16.6592 3.45324 3.45324 16.6592 3.45324 32.9496C3.45324 49.2401 16.6592 62.446 32.9496 62.446C49.2401 62.446 62.446 49.2401 62.446 32.9496C62.446 16.6592 49.2401 3.45324 32.9496 3.45324ZM0 32.9496C0 14.7521 14.7521 0 32.9496 0C51.1472 0 65.8993 14.7521 65.8993 32.9496C65.8993 51.1472 51.1472 65.8993 32.9496 65.8993C14.7521 65.8993 0 51.1472 0 32.9496Z" fill="#231F20"/>
<path d="M23.9617 80H22.9354V72.2173H23.9617V80Z" fill="#010101"/>
<path d="M25.8432 80V72.2173H28.0401C28.7171 72.2173 29.3158 72.367 29.8361 72.6663C30.3564 72.9656 30.7573 73.3915 31.0388 73.9438C31.3238 74.4961 31.4682 75.1304 31.4717 75.8467V76.3438C31.4717 77.0779 31.3292 77.7211 31.0441 78.2735C30.7626 78.8258 30.3581 79.2499 29.8307 79.5456C29.3069 79.8414 28.6958 79.9928 27.9973 80H25.8432ZM26.8695 73.0618V79.1608H27.9492C28.7403 79.1608 29.355 78.9149 29.7933 78.4231C30.2352 77.9314 30.4561 77.2311 30.4561 76.3224V75.8681C30.4561 74.9843 30.2477 74.2984 29.8307 73.8102C29.4174 73.3184 28.8294 73.069 28.0668 73.0618H26.8695Z" fill="#010101"/>
<path d="M37.4263 76.4026H34.0535V79.1608H37.9716V80H33.0272V72.2173H37.9181V73.0618H34.0535V75.5634H37.4263V76.4026Z" fill="#010101"/>
<path d="M41.7881 75.1999L43.6536 72.2173H44.8616L42.4028 76.0766L44.9204 80H43.7017L41.7881 76.9639L39.8638 80H38.6504L41.1734 76.0766L38.7092 72.2173H39.9119L41.7881 75.1999Z" fill="#010101"/>
</svg>
