<svg width="72" height="41" viewBox="0 0 72 41" fill="none" xmlns="http://www.w3.org/2000/svg">
<path d="M54.009 40.4593H18.4343L18.4284 38.398C18.4284 34.2324 18.725 31.827 23.1381 30.6889C28.1325 29.4018 33.0557 28.2537 30.686 23.3801C23.669 8.9445 28.6871 0.755615 36.2202 0.755615C43.6079 0.755615 48.7536 8.6401 41.7543 23.3834C39.4558 28.2272 44.2041 29.3787 49.3023 30.6922C53.7213 31.8304 54.0149 34.239 54.0149 38.4112L54.009 40.4593ZM68.2774 33.134C64.4515 32.148 60.8926 31.2844 62.6157 27.6515C67.8622 16.5941 64.0066 10.6815 58.4636 10.6815C54.7119 10.6815 51.7965 13.3847 51.7965 18.3708C51.7965 31.2844 58.5229 24.2271 58.4577 40.4593H71.8067L71.8126 38.9274C71.8126 35.7974 71.5931 33.9876 68.2774 33.134ZM0.639599 40.4593H13.9886C13.9263 24.2271 20.6498 31.2877 20.6498 18.3708C20.6498 13.3847 17.7344 10.6815 13.9827 10.6815C8.43962 10.6815 4.5841 16.5941 9.83354 27.6515C11.5567 31.2877 7.99772 32.148 4.17185 33.134C0.853135 33.9876 0.633667 35.7974 0.633667 38.9274L0.639599 40.4593Z" fill="#11355F"/>
<path d="M16.1165 40.3455H56.7733L56.78 38.2975C56.78 34.1253 56.4445 31.7166 51.3942 30.5784C45.5677 29.2649 40.1411 28.1135 42.7679 23.2696C50.7671 8.52633 44.8864 0.641846 36.4432 0.641846C27.8339 0.641846 22.0989 8.83073 30.1184 23.2663C32.8266 28.1399 27.2001 29.288 21.4922 30.5751C16.4487 31.7133 16.1097 34.1187 16.1097 38.2842L16.1165 40.3455Z" fill="#2D8DFC"/>
</svg>
