<svg width="287" height="264" viewBox="0 0 287 264" fill="none" xmlns="http://www.w3.org/2000/svg">
<path fill-rule="evenodd" clip-rule="evenodd" d="M60 185.436C93.1371 185.436 120 158.931 120 126.235C120 93.5392 93.1371 67.0339 60 67.0339C26.8629 67.0339 0 93.5392 0 126.235C0 158.931 26.8629 185.436 60 185.436Z" fill="#D3E7FF"/>
<path d="M119 126.235C119 158.366 92.5975 184.436 60 184.436C27.4025 184.436 1 158.366 1 126.235C1 94.1041 27.4025 68.0339 60 68.0339C92.5975 68.0339 119 94.1041 119 126.235Z" stroke="#333333" stroke-opacity="0.05" stroke-width="2"/>
<path fill-rule="evenodd" clip-rule="evenodd" d="M225.5 78.8743C247.315 78.8743 265 61.425 265 39.9001C265 18.3753 247.315 0.926025 225.5 0.926025C203.685 0.926025 186 18.3753 186 39.9001C186 61.425 203.685 78.8743 225.5 78.8743Z" fill="#DDEDFF"/>
<path d="M264 39.9001C264 60.8601 246.776 77.8743 225.5 77.8743C204.224 77.8743 187 60.8601 187 39.9001C187 18.9402 204.224 1.92603 225.5 1.92603C246.776 1.92603 264 18.9402 264 39.9001Z" stroke="#333333" stroke-opacity="0.05" stroke-width="2"/>
<path fill-rule="evenodd" clip-rule="evenodd" d="M257 263.385C273.569 263.385 287 250.132 287 233.784C287 217.436 273.569 204.183 257 204.183C240.431 204.183 227 217.436 227 233.784C227 250.132 240.431 263.385 257 263.385Z" fill="#D0DFEF"/>
<path d="M286 233.784C286 249.567 273.029 262.385 257 262.385C240.971 262.385 228 249.567 228 233.784C228 218.001 240.971 205.183 257 205.183C273.029 205.183 286 218.001 286 233.784Z" stroke="#333333" stroke-opacity="0.05" stroke-width="2"/>
</svg>
