<svg width="95" height="51" viewBox="0 0 95 51" fill="none" xmlns="http://www.w3.org/2000/svg">
<path d="M52.9424 34H51.0659V19.0703H52.9424V34ZM56.2339 34V19.0703H59.792C61.5352 19.0703 62.8887 19.6172 63.8525 20.7109C64.8164 21.7979 65.2983 23.3291 65.2983 25.3047V27.8066C65.2983 29.7822 64.8096 31.3101 63.832 32.3901C62.8545 33.4634 61.436 34 59.5767 34H56.2339ZM58.1104 20.6904V32.3901H59.6177C60.937 32.3901 61.9009 32.0142 62.5093 31.2622C63.1177 30.5034 63.4287 29.3823 63.4424 27.8989V25.2534C63.4424 23.6812 63.1382 22.5293 62.5298 21.7979C61.9282 21.0596 61.0156 20.6904 59.792 20.6904H58.1104ZM75.3882 27.0991H70.1074V32.3901H76.2598V34H68.231V19.0703H76.1572V20.6904H70.1074V25.4893H75.3882V27.0991ZM82.8633 24.792L85.6729 19.0703H87.8774L83.9912 26.4736L87.9595 34H85.7344L82.8633 28.1758L79.9819 34H77.7568L81.7456 26.4736L77.8389 19.0703H80.0332L82.8633 24.792Z" fill="#333333"/>
<path fill-rule="evenodd" clip-rule="evenodd" d="M39.1755 15.6925H8.82617V13.5964H39.1755V15.6925Z" fill="#333333"/>
<path fill-rule="evenodd" clip-rule="evenodd" d="M38.6882 39.0253H9.31348V36.9292H38.6882V39.0253Z" fill="#333333"/>
<path fill-rule="evenodd" clip-rule="evenodd" d="M42.952 27.359H24V25.2629H42.952V27.359Z" fill="#333333"/>
<path fill-rule="evenodd" clip-rule="evenodd" d="M22.7004 37.9773V14.6445H24.7965V37.9773H22.7004Z" fill="#333333"/>
<path fill-rule="evenodd" clip-rule="evenodd" d="M24 8.09607C14.1119 8.09607 6.09607 16.1119 6.09607 26C6.09607 35.8881 14.1119 43.9039 24 43.9039C33.8881 43.9039 41.9039 35.8881 41.9039 26C41.9039 16.1119 33.8881 8.09607 24 8.09607ZM4 26C4 14.9543 12.9543 6 24 6C35.0457 6 44 14.9543 44 26C44 37.0457 35.0457 46 24 46C12.9543 46 4 37.0457 4 26Z" fill="#333333"/>
</svg>
