<svg width="46" height="49" viewBox="0 0 46 49" fill="none" xmlns="http://www.w3.org/2000/svg">
<path d="M12.8316 48.4592H0.629456V36.5481H12.8316V48.4592ZM29.101 30.5926H16.8989V48.4592H29.101V30.5926ZM45.3705 22.6518H33.1684V48.4592H45.3705V22.6518ZM45.3705 0.814819L33.1684 3.23873L36.6582 6.62942L22.7275 19.9957L16.6244 14.0361L0.678264 29.5146L3.54576 32.3296L16.6162 19.6443L22.699 25.5859L39.5379 9.4325L42.928 12.7279L45.3705 0.814819Z" fill="#11355F"/>
<path d="M33.1685 3.23873L45.3706 0.814819L42.9281 12.7279L39.538 9.4325L22.6991 25.5859L16.6163 19.6443L3.54584 32.3296L0.678345 29.5146L16.6245 14.0361L22.7275 19.9957L36.6583 6.62942L33.1685 3.23873Z" fill="#2D8DFC"/>
</svg>
