<svg width="46" height="49" viewBox="0 0 46 49" fill="none" xmlns="http://www.w3.org/2000/svg">
<path d="M32.9453 24.6074C26.2077 24.6074 20.7431 29.9415 20.7431 36.5185C20.7431 43.0954 26.2077 48.4296 32.9453 48.4296C39.6828 48.4296 45.1474 43.0954 45.1474 36.5185C45.1474 29.9415 39.6828 24.6074 32.9453 24.6074ZM33.9621 41.4298V42.474H32.9453V41.4834C31.8918 41.4655 30.8038 41.2214 29.8947 40.7628L30.3584 39.131C31.3305 39.5002 32.6239 39.8913 33.6367 39.667C34.804 39.4089 35.044 38.2356 33.7526 37.6718C32.807 37.2411 29.911 36.8738 29.911 34.4519C29.911 33.1 30.9685 31.887 32.9453 31.623V30.5629H33.9621V31.5734C34.6983 31.5932 35.524 31.7183 36.4452 31.9902L36.0771 33.626C35.2962 33.358 34.4339 33.1159 33.592 33.1655C32.0789 33.2508 31.9447 34.5313 33.0022 35.0673C34.743 35.8653 37.0126 36.4569 37.0126 38.587C37.0147 40.2903 35.646 41.1975 33.9621 41.4298ZM37.2648 21.2226C39.5669 20.7799 41.6616 19.9799 43.1137 18.8464V20.1407C43.1137 21.1313 42.3287 22.0365 41.0658 22.777C39.8842 22.108 38.6091 21.5859 37.2648 21.2226ZM32.9453 9.71848C38.3813 9.71848 43.1137 7.7194 43.1137 5.25182C43.1137 2.78424 38.3813 0.785156 32.9453 0.785156C27.5112 0.785156 22.7768 2.78424 22.7768 5.25182C22.7768 7.7194 27.5112 9.71848 32.9453 9.71848ZM10.5747 31.5555C13.5134 31.5555 16.2182 30.958 18.1095 30.0309C18.742 28.6611 19.5616 27.3926 20.5459 26.261C19.6287 24.1905 15.3824 22.6222 10.5747 22.6222C5.14073 22.6222 0.406311 24.6212 0.406311 27.0888C0.406311 29.5564 5.14073 31.5555 10.5747 31.5555ZM18.9047 44.5029C17.0357 45.6741 13.9425 46.4444 10.5747 46.4444C5.14073 46.4444 0.406311 44.4453 0.406311 41.9777V40.6834C2.73691 42.5058 6.72903 43.4666 10.5747 43.4666C13.0884 43.4666 15.6569 43.0477 17.7923 42.2536C18.1034 43.0358 18.4756 43.7882 18.9047 44.5029ZM0.406311 37.0147V35.7224C2.73691 37.5428 6.72903 38.5036 10.5747 38.5036C12.6877 38.5036 14.8333 38.2039 16.7327 37.6401C16.7998 38.5711 16.9503 39.4784 17.1761 40.3598C15.3702 41.0486 13.0599 41.4814 10.5747 41.4814C5.14073 41.4814 0.406311 39.4823 0.406311 37.0147ZM0.406311 32.0518V30.7575C2.73691 32.5798 6.72903 33.5407 10.5747 33.5407C12.8667 33.5407 15.2014 33.1913 17.2167 32.5302C16.9564 33.5089 16.7897 34.5194 16.7266 35.5596C14.9899 36.1512 12.8565 36.5185 10.5747 36.5185C5.14073 36.5185 0.406311 34.5194 0.406311 32.0518ZM22.7768 10.2148V8.92044C25.1074 10.7428 29.0996 11.7037 32.9453 11.7037C36.793 11.7037 40.7831 10.7428 43.1137 8.92044V10.2148C43.1137 12.6824 38.3813 14.6814 32.9453 14.6814C27.5112 14.6814 22.7768 12.6824 22.7768 10.2148ZM22.7768 20.1407V18.8464C24.2268 19.9799 26.3236 20.7799 28.6257 21.2226C27.2814 21.5859 26.0084 22.108 24.8268 22.777C23.5618 22.0365 22.7768 21.1313 22.7768 20.1407ZM22.7768 15.1777V13.8854C25.1074 15.7058 29.0996 16.6666 32.9453 16.6666C36.793 16.6666 40.7831 15.7058 43.1137 13.8854V15.1777C43.1137 17.6453 38.3813 19.6444 32.9453 19.6444C27.5112 19.6444 22.7768 17.6453 22.7768 15.1777Z" fill="#11355F"/>
<path d="M20.7432 36.5184C20.7432 29.9415 26.2077 24.6073 32.9453 24.6073C39.6829 24.6073 45.1474 29.9415 45.1474 36.5184C45.1474 43.0953 39.6829 48.4295 32.9453 48.4295C26.2077 48.4295 20.7432 43.0953 20.7432 36.5184Z" fill="#2D8DFC"/>
<path d="M33.9621 42.474V41.4298C35.646 41.1975 37.0146 40.2903 37.0126 38.587C37.0126 36.4569 34.743 35.8653 33.0022 35.0672C31.9447 34.5312 32.0789 33.2508 33.5919 33.1654C34.4339 33.1158 35.2962 33.358 36.0771 33.626L36.4452 31.9902C35.5239 31.7182 34.6983 31.5932 33.9621 31.5733V30.5629H32.9452V31.623C30.9685 31.887 29.911 33.0999 29.911 34.4518C29.911 36.8738 32.8069 37.241 33.7526 37.6718C35.044 38.2356 34.804 39.4088 33.6367 39.6669C32.6239 39.8912 31.3305 39.5002 30.3584 39.1309L29.8947 40.7627C30.8038 41.2213 31.8918 41.4655 32.9452 41.4834V42.474H33.9621Z" fill="white"/>
</svg>
